<svg width="1736" height="1991" viewBox="0 0 1736 1991" fill="none" xmlns="http://www.w3.org/2000/svg">
<path d="M714.686 796.314V720.455C686.539 716.732 658.184 714.805 629.792 714.686C282.556 714.686 0 979.12 0 1304.15C0 1503.5 106.488 1680.02 268.875 1786.72C160.141 1677.88 99.6477 1534.43 99.7498 1385.42C99.7498 1065.04 374.24 803.767 714.686 796.314Z" fill="#00F2EA"/>
<path d="M731.379 1633.57C878.196 1633.57 997.906 1517.53 1003.37 1372.86L1003.88 81.7295H1241.26C1236.18 54.7819 1233.59 27.4224 1233.55 0L909.387 0L908.826 1291.18C903.414 1435.75 783.602 1551.79 636.836 1551.79C592.805 1551.79 549.431 1541.1 510.439 1520.65C535.706 1555.61 568.908 1584.07 607.317 1603.7C645.726 1623.33 688.245 1633.57 731.379 1633.57ZM1684.57 519.985V448.21C1597.42 448.307 1512.12 423.108 1439.02 375.67C1503.18 449 1589.28 499.623 1684.57 519.985Z" fill="#00F2EA"/>
<path d="M1429.37 393.996C1358.09 313.467 1318.72 209.645 1318.7 102.098H1232.07C1243.4 161.603 1266.75 218.174 1300.67 268.36C1334.59 318.546 1378.38 361.294 1429.37 393.996ZM629.179 1024.3C479.095 1024.5 357.496 1144.83 357.343 1293.33C357.5 1342.56 371.169 1390.8 396.86 1432.79C422.551 1474.78 459.278 1508.92 503.037 1531.47C469.646 1485.98 451.622 1431.03 451.58 1374.6C451.733 1226.04 573.331 1105.67 723.416 1105.52C751.493 1105.52 778.293 1110.11 803.665 1117.97V791.26C777.076 787.521 750.266 785.577 723.416 785.44C718.719 785.44 714.074 785.746 709.428 785.797V1036.75C683.46 1028.58 656.404 1024.38 629.179 1024.3Z" fill="#FF004F"/>
<path d="M1641.38 561.539V810.862C1480.12 811.103 1322.82 760.93 1191.48 667.364V1319.11C1191.48 1644.65 924.498 1909.49 596.355 1909.49C469.498 1909.49 351.881 1869.77 255.245 1802.44C311.033 1862 378.461 1909.46 453.349 1941.88C528.237 1974.3 608.987 1990.99 690.591 1990.91C1018.79 1990.91 1285.77 1726.07 1285.77 1400.58V748.787C1417.11 842.335 1574.41 892.49 1735.67 892.235V571.494C1703.98 571.484 1672.37 568.148 1641.38 561.539Z" fill="#FF004F"/>
<path d="M1224.1 1297.67V644.851C1359.26 738.805 1520.01 788.985 1684.62 788.605V538.975C1587.83 518.943 1499.97 468.503 1433.86 395.017C1328.09 328.296 1255.09 222.472 1231.91 102.098H989.585L989.075 1389.3C983.459 1533.46 861.197 1649.14 711.368 1649.14C621.828 1649.04 537.903 1607.18 485.731 1536.63C394.149 1490.02 336.719 1397.98 336.668 1297.61C336.821 1148.55 461.228 1027.82 614.885 1027.62C643.473 1027.62 670.937 1032.21 696.972 1040.12V788.299C367.655 795.803 102.098 1057.84 102.098 1379.14C102.098 1534.58 164.327 1676.04 265.71 1781.66C368.66 1851.72 490.36 1889.06 614.885 1888.81C950.788 1888.81 1224.1 1623.61 1224.1 1297.67Z" fill="white"/>
</svg>
